<svg xmlns="http://www.w3.org/2000/svg" width="49.024" height="49.024" viewBox="0 0 49.024 49.024">
  <g id="_4_off" data-name="4_off" transform="translate(-2383 -4830.31)">
    <path id="Path_182" data-name="Path 182" d="M45,177v40.931s0,4.093,4.093,4.093H90.024" transform="translate(2340 4655.31)" fill="none" stroke="#d6d6d6" stroke-linecap="round" stroke-linejoin="round" stroke-miterlimit="10" stroke-width="4"/>
    <path id="Path_183" data-name="Path 183" d="M49,210.512V190.047A1.934,1.934,0,0,1,51.047,188h6.14a1.934,1.934,0,0,1,2.047,2.047v20.465" transform="translate(2344.186 4666.821)" fill="none" stroke="#d6d6d6" stroke-linecap="round" stroke-linejoin="round" stroke-miterlimit="10" stroke-width="4"/>
    <path id="Path_186" data-name="Path 186" d="M54,200.512V180.047A1.933,1.933,0,0,1,56.047,178h6.14a1.934,1.934,0,0,1,2.047,2.047v20.465" transform="translate(2349.419 4656.356)" fill="none" stroke="#d6d6d6" stroke-linecap="round" stroke-linejoin="round" stroke-miterlimit="10" stroke-width="4"/>
    <path id="Path_184" data-name="Path 184" d="M59,214.7V186.047A1.934,1.934,0,0,1,61.047,184h6.14a1.934,1.934,0,0,1,2.047,2.047V214.7" transform="translate(2354.652 4662.635)" fill="none" stroke="#d6d6d6" stroke-linecap="round" stroke-linejoin="round" stroke-miterlimit="10" stroke-width="4"/>
  </g>
</svg>
