<svg xmlns="http://www.w3.org/2000/svg" width="49.024" height="49.024" viewBox="0 0 49.024 49.024">
  <g id="_4_on" data-name="4_on" transform="translate(-2383 -5044.31)">
    <path id="Path_76" data-name="Path 76" d="M45,177v40.931s0,4.093,4.093,4.093H90.024" transform="translate(2340 4869.31)" fill="none" stroke="#721a82" stroke-linecap="round" stroke-linejoin="round" stroke-miterlimit="10" stroke-width="4"/>
    <path id="Path_77" data-name="Path 77" d="M49,210.512V190.047A1.934,1.934,0,0,1,51.047,188h6.14a1.934,1.934,0,0,1,2.047,2.047v20.465" transform="translate(2344.186 4880.821)" fill="none" stroke="#721a82" stroke-linecap="round" stroke-linejoin="round" stroke-miterlimit="10" stroke-width="4"/>
    <path id="Path_78" data-name="Path 78" d="M54,200.512V180.047A1.933,1.933,0,0,1,56.047,178h6.14a1.934,1.934,0,0,1,2.047,2.047v20.465" transform="translate(2349.419 4870.356)" fill="none" stroke="#721a82" stroke-linecap="round" stroke-linejoin="round" stroke-miterlimit="10" stroke-width="4"/>
    <path id="Path_79" data-name="Path 79" d="M59,214.7V186.047A1.934,1.934,0,0,1,61.047,184h6.14a1.934,1.934,0,0,1,2.047,2.047V214.7" transform="translate(2354.652 4876.635)" fill="none" stroke="#721a82" stroke-linecap="round" stroke-linejoin="round" stroke-miterlimit="10" stroke-width="4"/>
  </g>
</svg>
