<svg xmlns="http://www.w3.org/2000/svg" width="49.024" height="49.024" viewBox="0 0 49.024 49.024">
    <defs>
        <style>
            .cls-1{fill:none;stroke:#9e9e9e;stroke-linecap:round;stroke-linejoin:round;stroke-miterlimit:10;stroke-width:4px}
        </style>
    </defs>
    <g id="Symbol_5_1" data-name="Symbol 5 – 1" transform="translate(-982 -126.309)">
        <path id="Path_76" d="M45 177v40.931s0 4.093 4.093 4.093h40.931" class="cls-1" data-name="Path 76" transform="translate(939 -48.691)"/>
        <path id="Path_77" d="M49 210.512v-20.465A1.934 1.934 0 0 1 51.047 188h6.14a1.934 1.934 0 0 1 2.047 2.047v20.465" class="cls-1" data-name="Path 77" transform="translate(943.186 -37.179)"/>
        <path id="Path_78" d="M54 200.512v-20.465A1.933 1.933 0 0 1 56.047 178h6.14a1.934 1.934 0 0 1 2.047 2.047v20.465" class="cls-1" data-name="Path 78" transform="translate(948.419 -47.644)"/>
        <path id="Path_79" d="M59 214.7v-28.653A1.934 1.934 0 0 1 61.047 184h6.14a1.934 1.934 0 0 1 2.047 2.047V214.7" class="cls-1" data-name="Path 79" transform="translate(953.652 -41.365)"/>
    </g>
</svg>
