<svg xmlns="http://www.w3.org/2000/svg" width="36.745" height="49.024" viewBox="0 0 36.745 49.024">
    <defs>
        <style>
            .cls-1{fill:none;stroke:#721a82;stroke-linecap:round;stroke-linejoin:round;stroke-miterlimit:10;stroke-width:4px}
        </style>
    </defs>
    <g id="Symbol_7_2" data-name="Symbol 7 – 2" transform="translate(-169 -126.309)">
        <path id="Path_100" d="M224 252.559a6.03 6.03 0 0 0 6.14 6.14h20.46a6.03 6.03 0 0 0 6.14-6.14V234.14a6.03 6.03 0 0 0-6.14-6.14h-20.46a6.03 6.03 0 0 0-6.14 6.14z" class="cls-1" data-name="Path 100" transform="translate(-53 -85.365)"/>
        <path id="Path_101" d="M228 235.326v-10.233s0-4.093 4.093-4.093h8.186s4.093 0 4.093 4.093" class="cls-1" data-name="Path 101" transform="translate(-48.814 -92.691)"/>
        <path id="Line_69" d="M0 0h8.186" class="cls-1" data-name="Line 69" transform="translate(183.279 154.914)"/>
        <path id="Line_70" d="M0 0v8.186" class="cls-1" data-name="Line 70" transform="translate(187.372 154.914)"/>
    </g>
</svg>
